<svg version="1.1" xmlns="http://www.w3.org/2000/svg" xmlns:xlink="http://www.w3.org/1999/xlink" width="24.66108" height="41.96499" viewBox="0,0,24.66108,41.96499"><g transform="translate(-307.50283,-160.38942)"><g data-paper-data="{&quot;isPaintingLayer&quot;:true}" fill="#34c839" fill-rule="nonzero" stroke="none" stroke-width="0" stroke-linecap="butt" stroke-linejoin="miter" stroke-miterlimit="10" stroke-dasharray="" stroke-dashoffset="0" style="mix-blend-mode: normal"><path d="M316.99709,201.09595c-1.1962,-1.62121 0.93968,-6.37405 1.20978,-10.4781c0.27777,-4.22067 -1.5063,-6.6485 -1.17784,-10.86491c0.34794,-4.46661 1.83559,-6.92652 2.54565,-11.34106c0.46102,-2.86623 -0.90103,-4.53887 -0.6026,-7.4311c0.27876,-2.70163 3.1822,4.56324 3.22292,7.49523c0.06212,4.47375 -0.98996,6.96123 -0.68939,11.42117c0.28466,4.22397 2.41574,6.65936 2.4595,10.89675c0.04243,4.1086 -0.10003,8.94754 -1.34379,10.46335c-1.24375,1.51581 -4.42802,1.45988 -5.62422,-0.16133z" data-paper-data="{&quot;origPos&quot;:null,&quot;index&quot;:null,&quot;origRot&quot;:0}"/><path d="M325.31361,200.7516c-1.25995,-1.433 0.77224,-5.78024 0.9296,-9.49328c0.16183,-3.81855 -1.7176,-5.96472 -1.50423,-9.78073c0.22604,-4.04245 1.66566,-6.30233 2.26063,-10.30715c0.3863,-2.6002 2.53607,-2.65656 2.66078,-0.00997c0.19027,4.03828 -0.80657,6.31178 -0.37472,10.33141c0.409,3.80696 2.64076,5.95097 2.8057,9.77629c0.15992,3.70906 0.15298,8.0824 -1.066,9.48343c-1.21898,1.40103 -4.4518,1.433 -5.71175,0z" data-paper-data="{&quot;origPos&quot;:null,&quot;index&quot;:null}"/><path d="M308.64137,200.7516c-1.21898,-1.40103 -1.22592,-5.77437 -1.066,-9.48343c0.16493,-3.82532 2.3967,-5.96933 2.8057,-9.77629c0.43185,-4.01963 4.32065,-4.05674 4.54669,-0.01429c0.21337,3.81601 -1.66606,5.96218 -1.50423,9.78073c0.15735,3.71304 2.18955,8.06028 0.9296,9.49328c-1.25995,1.433 -4.49277,1.40103 -5.71175,0z" data-paper-data="{&quot;origPos&quot;:null,&quot;index&quot;:null}"/></g></g></svg>