<svg version="1.1" xmlns="http://www.w3.org/2000/svg" xmlns:xlink="http://www.w3.org/1999/xlink" width="24.66108" height="13.95762" viewBox="0,0,24.66108,13.95762"><g transform="translate(-307.50283,-188.39679)"><g data-paper-data="{&quot;isPaintingLayer&quot;:true}" fill="#34c839" fill-rule="nonzero" stroke="none" stroke-width="0" stroke-linecap="butt" stroke-linejoin="miter" stroke-miterlimit="10" stroke-dasharray="" stroke-dashoffset="0" style="mix-blend-mode: normal"><path d="M316.99709,201.09595c-1.1962,-1.62121 6.86799,-1.35448 5.62423,0.16133c-1.24375,1.51581 -4.42802,1.45988 -5.62422,-0.16133z" data-paper-data="{&quot;origPos&quot;:null,&quot;index&quot;:null,&quot;origRot&quot;:0}"/><path d="M325.31361,200.7516c-1.25995,-1.433 0.77224,-5.78024 0.9296,-9.49328c0.16183,-3.81855 5.68322,-3.81547 5.84816,0.00985c0.15992,3.70906 0.15298,8.0824 -1.066,9.48343c-1.21898,1.40103 -4.4518,1.433 -5.71175,0z" data-paper-data="{&quot;origPos&quot;:null,&quot;index&quot;:null}"/><path d="M308.64137,200.7516c-1.21898,-1.40103 -1.22592,-5.77437 -1.066,-9.48343c0.16493,-3.82532 5.68633,-3.8284 5.84816,-0.00985c0.15735,3.71304 2.18955,8.06028 0.9296,9.49328c-1.25995,1.433 -4.49277,1.40103 -5.71175,0z" data-paper-data="{&quot;origPos&quot;:null,&quot;index&quot;:null}"/></g></g></svg>