<svg version="1.1" xmlns="http://www.w3.org/2000/svg" xmlns:xlink="http://www.w3.org/1999/xlink" width="856.76354" height="945.7102" viewBox="0,0,856.76354,945.7102"><defs><linearGradient x1="534.58219" y1="400.65016" x2="360.58219" y2="400.65016" gradientUnits="userSpaceOnUse" id="color-1"><stop offset="0" stop-color="#a2bad1"/><stop offset="1" stop-color="#a2bad1" stop-opacity="0"/></linearGradient><linearGradient x1="301.70754" y1="395.28232" x2="127.70754" y2="395.28232" gradientUnits="userSpaceOnUse" id="color-2"><stop offset="0" stop-color="#a2bad1"/><stop offset="1" stop-color="#a2bad1" stop-opacity="0"/></linearGradient><linearGradient x1="724.63547" y1="407.78982" x2="550.63547" y2="407.78982" gradientUnits="userSpaceOnUse" id="color-3"><stop offset="0" stop-color="#a2bad1"/><stop offset="1" stop-color="#a2bad1" stop-opacity="0"/></linearGradient><linearGradient x1="65.61823" y1="419.16367" x2="-108.38177" y2="419.16367" gradientUnits="userSpaceOnUse" id="color-4"><stop offset="0" stop-color="#a2bad1"/><stop offset="1" stop-color="#a2bad1" stop-opacity="0"/></linearGradient><linearGradient x1="536.57919" y1="-61.67116" x2="362.57919" y2="-61.67116" gradientUnits="userSpaceOnUse" id="color-5"><stop offset="0" stop-color="#a2bad1"/><stop offset="1" stop-color="#a2bad1" stop-opacity="0"/></linearGradient><linearGradient x1="303.70454" y1="-63.81082" x2="129.70454" y2="-63.81082" gradientUnits="userSpaceOnUse" id="color-6"><stop offset="0" stop-color="#a2bad1"/><stop offset="1" stop-color="#a2bad1" stop-opacity="0"/></linearGradient><linearGradient x1="726.63247" y1="-53.79583" x2="552.63247" y2="-53.79583" gradientUnits="userSpaceOnUse" id="color-7"><stop offset="0" stop-color="#a2bad1"/><stop offset="1" stop-color="#a2bad1" stop-opacity="0"/></linearGradient><linearGradient x1="67.61523" y1="-42.64715" x2="-106.38477" y2="-42.64715" gradientUnits="userSpaceOnUse" id="color-8"><stop offset="0" stop-color="#a2bad1"/><stop offset="1" stop-color="#a2bad1" stop-opacity="0"/></linearGradient></defs><g transform="translate(108.38177,294.54653)"><g data-paper-data="{&quot;isPaintingLayer&quot;:true}" fill-rule="nonzero" stroke="none" stroke-width="0" stroke-linecap="butt" stroke-linejoin="miter" stroke-miterlimit="10" stroke-dasharray="" stroke-dashoffset="0" style="mix-blend-mode: normal"><path d="M534.58218,168.65015c0,0 20,81.91985 20,160c0,30.50104 -21.17464,67.80986 -24.9943,122.28623c-2.71316,38.69553 17.23154,65.19715 18.99306,99.36079c1.98304,38.45998 -13.99875,82.35298 -13.99875,82.35298h-174v-464z" data-paper-data="{&quot;index&quot;:null,&quot;origPos&quot;:null}" fill="url(#color-1)"/><path d="M301.70754,164.54662c0,0 22.64305,75.61166 21.72194,125.02249c-1.06133,56.93242 -25.54401,92.4859 -22.70556,157.9412c2.31795,53.45261 18.98362,99.55832 18.98362,121.67624c0,26.62349 -18,56.83145 -18,56.83145h-174v-461.47139z" data-paper-data="{&quot;index&quot;:null,&quot;origPos&quot;:null}" fill="url(#color-2)"/><path d="M550.63547,638.52552v-461.47139h174c0,0 18,30.20796 18,56.83145c0,22.11792 -16.66567,68.22363 -18.98362,121.67624c-2.83845,65.4553 21.64423,101.00878 22.70556,157.9412c0.92111,49.41083 -21.72194,125.02249 -21.72194,125.02249z" data-paper-data="{&quot;index&quot;:null,&quot;origPos&quot;:null}" fill="url(#color-3)"/><path d="M-108.38177,651.16367v-464h174c0,0 15.98179,43.893 13.99875,82.35298c-1.76152,34.16364 -21.70622,60.66526 -18.99306,99.36079c3.81966,54.47637 24.9943,91.78519 24.9943,122.28623c0,78.08015 -20,160 -20,160z" data-paper-data="{&quot;index&quot;:null,&quot;origPos&quot;:null}" fill="url(#color-4)"/><path d="M536.57918,-293.67117c0,0 20,81.91985 20,160c0,30.50104 -21.17464,67.80986 -24.9943,122.28623c-2.71316,38.69553 17.23154,65.19715 18.99306,99.36079c1.98304,38.45998 -13.99875,82.35298 -13.99875,82.35298h-174v-464z" data-paper-data="{&quot;index&quot;:null,&quot;origPos&quot;:null}" fill="url(#color-5)"/><path d="M303.70454,-294.54652c0,0 22.64305,75.61166 21.72194,125.02249c-1.06133,56.93242 -25.54401,92.4859 -22.70556,157.9412c2.31795,53.45261 18.98362,99.55832 18.98362,121.67624c0,26.62349 -18,56.83145 -18,56.83145h-174v-461.47139z" data-paper-data="{&quot;index&quot;:null,&quot;origPos&quot;:null}" fill="url(#color-6)"/><path d="M552.63247,176.93987v-461.47139h174c0,0 18,30.20796 18,56.83145c0,22.11792 -16.66567,68.22363 -18.98362,121.67624c-2.83845,65.4553 21.64423,101.00878 22.70556,157.9412c0.92111,49.41083 -21.72194,125.02249 -21.72194,125.02249z" data-paper-data="{&quot;index&quot;:null,&quot;origPos&quot;:null}" fill="url(#color-7)"/><path d="M-106.38477,189.35285v-464h174c0,0 15.98179,43.893 13.99875,82.35298c-1.76152,34.16364 -21.70622,60.66526 -18.99306,99.36079c3.81966,54.47637 24.9943,91.78519 24.9943,122.28623c0,78.08015 -20,160 -20,160z" data-paper-data="{&quot;index&quot;:null,&quot;origPos&quot;:null}" fill="url(#color-8)"/></g></g></svg>